<?xml version="1.0" ?><svg height="50px" id="Слой_1" style="enable-background:new 0 0 50 50;" version="1.1" viewBox="0 0 50 50" width="50px" xml:space="preserve" xmlns="http://www.w3.org/2000/svg" xmlns:xlink="http://www.w3.org/1999/xlink"><style type="text/css">
	.st0{fill:#374163;}
</style><g><path class="st0" d="M39.26961,50H10.73039c-3.63902,0-6.59792-2.96075-6.59792-6.59792V6.59792   C4.13248,2.96075,7.09137,0,10.73039,0H29.613c0.60804,0,1.19206,0.24026,1.62453,0.66903l13.94803,13.84268   c0.43616,0.43247,0.68197,1.02388,0.68197,1.63747v27.2529C45.86752,47.03925,42.90863,50,39.26961,50z M10.73039,4.613   c-1.09411,0-1.98492,0.89081-1.98492,1.98492v36.80417c0,1.09411,0.89081,1.98492,1.98492,1.98492h28.53922   c1.09411,0,1.98492-0.89081,1.98492-1.98492V17.11022L28.66304,4.613H10.73039z"/><path class="st0" d="M43.56103,18.56287h-9.54942c-3.63532,0-6.70511-3.07163-6.70511-6.70511V2.3065   C27.3065,1.03127,28.33962,0,29.613,0c1.27338,0,2.3065,1.03127,2.3065,2.3065v9.55127c0,1.09411,0.998,2.09211,2.09211,2.09211   h9.54942c1.27338,0,2.3065,1.03127,2.3065,2.3065S44.8344,18.56287,43.56103,18.56287z"/><path class="st0" d="M25,37.12205c-1.27338,0-2.3065-1.03127-2.3065-2.3065V24.41044c0-1.27523,1.03312-2.3065,2.3065-2.3065   s2.3065,1.03127,2.3065,2.3065v10.40512C27.3065,36.09078,26.27338,37.12205,25,37.12205z"/><path class="st0" d="M30.14896,31.8659H19.84919c-1.27338,0-2.3065-1.03127-2.3065-2.3065c0-1.27523,1.03312-2.3065,2.3065-2.3065   h10.29977c1.27338,0,2.3065,1.03127,2.3065,2.3065C32.45546,30.83463,31.42234,31.8659,30.14896,31.8659z"/></g></svg>